<?xml version="1.0" encoding="UTF-8" standalone="no"?><!-- Generator: Gravit.io --><svg xmlns="http://www.w3.org/2000/svg" xmlns:xlink="http://www.w3.org/1999/xlink" style="isolation:isolate" viewBox="0 0 500 500" width="500pt" height="500pt"><defs><clipPath id="_clipPath_nyZIsREPsktB4hzmFisydWdvjuU2zhEe"><rect width="500" height="500"/></clipPath></defs><g clip-path="url(#_clipPath_nyZIsREPsktB4hzmFisydWdvjuU2zhEe)"><defs><filter id="eYgerkf5ZblT1eaTvF0dPqrr2UYTsjkJ" x="-200%" y="-200%" width="400%" height="400%" filterUnits="objectBoundingBox" color-interpolation-filters="sRGB"><feGaussianBlur xmlns="http://www.w3.org/2000/svg" in="SourceGraphic" stdDeviation="1.2880827188517086"/><feOffset xmlns="http://www.w3.org/2000/svg" dx="0" dy="0" result="pf_100_offsetBlur"/><feFlood xmlns="http://www.w3.org/2000/svg" flood-color="#536B8A" flood-opacity="1"/><feComposite xmlns="http://www.w3.org/2000/svg" in2="pf_100_offsetBlur" operator="in" result="pf_100_dropShadow"/><feBlend xmlns="http://www.w3.org/2000/svg" in="SourceGraphic" in2="pf_100_dropShadow" mode="normal"/></filter></defs><g filter="url(#eYgerkf5ZblT1eaTvF0dPqrr2UYTsjkJ)"><path d=" M 121.86 450.487 L 121.86 457.507 L 121.86 457.507 Q 110.264 458.547 102.62 458.547 L 102.62 458.547 L 102.62 458.547 Q 97.524 458.547 95.132 456.155 L 95.132 456.155 L 95.132 456.155 Q 92.74 453.763 92.74 448.667 L 92.74 448.667 L 92.74 432.027 L 92.74 432.027 Q 92.74 426.567 95.21 424.097 L 95.21 424.097 L 95.21 424.097 Q 97.68 421.627 103.14 421.627 L 103.14 421.627 L 121.86 421.627 L 121.86 428.907 L 105.22 428.907 L 105.22 428.907 Q 102.1 428.907 102.1 432.027 L 102.1 432.027 L 102.1 448.667 L 102.1 448.667 Q 102.1 449.863 102.802 450.565 L 102.802 450.565 L 102.802 450.565 Q 103.504 451.267 104.596 451.267 L 104.596 451.267 L 104.596 451.267 Q 105.688 451.267 106.988 451.241 L 106.988 451.241 L 106.988 451.241 Q 108.288 451.215 109.692 451.163 L 109.692 451.163 L 109.692 451.163 Q 111.096 451.111 112.526 451.059 L 112.526 451.059 L 112.526 451.059 Q 113.956 451.007 116.218 450.851 L 116.218 450.851 L 116.218 450.851 Q 118.48 450.695 121.86 450.487 L 121.86 450.487 L 121.86 450.487 Z  M 149.42 448.147 L 149.42 431.507 L 149.42 431.507 Q 149.42 428.387 146.3 428.387 L 146.3 428.387 L 137.46 428.387 L 137.46 428.387 Q 134.34 428.387 134.34 431.507 L 134.34 431.507 L 134.34 448.147 L 134.34 448.147 Q 134.34 451.267 137.46 451.267 L 137.46 451.267 L 146.3 451.267 L 146.3 451.267 Q 149.42 451.267 149.42 448.147 L 149.42 448.147 L 149.42 448.147 Z  M 158.78 431.507 L 158.78 448.147 L 158.78 448.147 Q 158.78 453.607 156.31 456.077 L 156.31 456.077 L 156.31 456.077 Q 153.84 458.547 148.38 458.547 L 148.38 458.547 L 135.38 458.547 L 135.38 458.547 Q 129.92 458.547 127.45 456.077 L 127.45 456.077 L 127.45 456.077 Q 124.98 453.607 124.98 448.147 L 124.98 448.147 L 124.98 431.507 L 124.98 431.507 Q 124.98 426.047 127.45 423.577 L 127.45 423.577 L 127.45 423.577 Q 129.92 421.107 135.38 421.107 L 135.38 421.107 L 148.38 421.107 L 148.38 421.107 Q 153.84 421.107 156.31 423.577 L 156.31 423.577 L 156.31 423.577 Q 158.78 426.047 158.78 431.507 L 158.78 431.507 L 158.78 431.507 Z  M 195.18 458.027 L 195.18 437.747 L 187.9 450.747 L 180.62 450.747 L 173.34 437.747 L 173.34 458.027 L 163.98 458.027 L 163.98 421.627 L 173.86 421.627 L 184.26 440.867 L 194.66 421.627 L 204.54 421.627 L 204.54 458.027 L 195.18 458.027 L 195.18 458.027 Z  M 241.98 458.027 L 241.98 437.747 L 234.7 450.747 L 227.42 450.747 L 220.14 437.747 L 220.14 458.027 L 210.78 458.027 L 210.78 421.627 L 220.66 421.627 L 231.06 440.867 L 241.46 421.627 L 251.34 421.627 L 251.34 458.027 L 241.98 458.027 L 241.98 458.027 Z  M 280.98 448.147 L 280.98 421.627 L 290.34 421.627 L 290.34 448.147 L 290.34 448.147 Q 290.34 453.607 287.87 456.077 L 287.87 456.077 L 287.87 456.077 Q 285.4 458.547 279.94 458.547 L 279.94 458.547 L 267.98 458.547 L 267.98 458.547 Q 262.52 458.547 260.05 456.077 L 260.05 456.077 L 260.05 456.077 Q 257.58 453.607 257.58 448.147 L 257.58 448.147 L 257.58 421.627 L 266.94 421.627 L 266.94 448.147 L 266.94 448.147 Q 266.94 451.267 270.06 451.267 L 270.06 451.267 L 277.86 451.267 L 277.86 451.267 Q 280.98 451.267 280.98 448.147 L 280.98 448.147 L 280.98 448.147 Z  M 328.3 421.627 L 328.3 458.027 L 318.42 458.027 L 305.94 436.187 L 305.94 458.027 L 296.58 458.027 L 296.58 421.627 L 306.46 421.627 L 318.94 443.467 L 318.94 421.627 L 328.3 421.627 L 328.3 421.627 Z  M 351.7 450.747 L 351.7 458.027 L 332.98 458.027 L 332.98 450.747 L 337.66 450.747 L 337.66 428.907 L 332.98 428.907 L 332.98 421.627 L 351.7 421.627 L 351.7 428.907 L 347.02 428.907 L 347.02 450.747 L 351.7 450.747 L 351.7 450.747 Z  M 374.06 428.907 L 374.06 458.027 L 364.7 458.027 L 364.7 428.907 L 353.78 428.907 L 353.78 421.627 L 384.98 421.627 L 384.98 428.907 L 374.06 428.907 L 374.06 428.907 Z  M 398.24 448.407 L 384.46 421.627 L 394.34 421.627 L 402.92 439.307 L 411.5 421.627 L 421.38 421.627 L 407.6 448.407 L 407.6 458.027 L 398.24 458.027 L 398.24 448.407 L 398.24 448.407 Z " fill="rgb(93,135,191)"/></g><g><defs><filter id="SKovN7KJobupF5ZDfpgCSO6bZCPPlDjl" x="-200%" y="-200%" width="400%" height="400%" filterUnits="objectBoundingBox" color-interpolation-filters="sRGB"><feGaussianBlur xmlns="http://www.w3.org/2000/svg" in="SourceGraphic" stdDeviation="0.8587218125678057"/><feOffset xmlns="http://www.w3.org/2000/svg" dx="0" dy="0" result="pf_100_offsetBlur"/><feFlood xmlns="http://www.w3.org/2000/svg" flood-color="#000000" flood-opacity="0.65"/><feComposite xmlns="http://www.w3.org/2000/svg" in2="pf_100_offsetBlur" operator="in" result="pf_100_dropShadow"/><feBlend xmlns="http://www.w3.org/2000/svg" in="SourceGraphic" in2="pf_100_dropShadow" mode="normal"/></filter></defs><g filter="url(#SKovN7KJobupF5ZDfpgCSO6bZCPPlDjl)"><path d=" M 305.168 386.273 L 425.387 51.967 C 427.426 46.297 424.212 42.163 418.215 42.741 L 323.674 51.849 C 317.677 52.427 311.199 57.516 309.218 63.205 L 197.943 382.692 C 195.961 388.381 199.244 393 205.268 393 L 297.29 393 C 300.302 393 303.575 390.699 304.595 387.864 L 305.168 386.273 Z " fill="rgb(83,107,138)"/></g><defs><filter id="pkODecDoOK4Bv6YAt2pGDqvPPiaLMRBh" x="-200%" y="-200%" width="400%" height="400%" filterUnits="objectBoundingBox" color-interpolation-filters="sRGB"><feGaussianBlur xmlns="http://www.w3.org/2000/svg" in="SourceGraphic" stdDeviation="6.440413594258542"/><feOffset xmlns="http://www.w3.org/2000/svg" dx="0" dy="0" result="pf_100_offsetBlur"/><feFlood xmlns="http://www.w3.org/2000/svg" flood-color="#000000" flood-opacity="0.65"/><feComposite xmlns="http://www.w3.org/2000/svg" in2="pf_100_offsetBlur" operator="in" result="pf_100_dropShadow"/><feBlend xmlns="http://www.w3.org/2000/svg" in="SourceGraphic" in2="pf_100_dropShadow" mode="normal"/></filter></defs><g filter="url(#pkODecDoOK4Bv6YAt2pGDqvPPiaLMRBh)"><path d=" M 291.454 387.864 L 241.399 243.268 L 248.55 238.799 L 299.498 386.273 L 291.454 387.864 Z " fill="rgb(235,235,235)"/></g><defs><filter id="gWVCTW2zNc6XnXWJXnsAwdwKJM1yD9Ri" x="-200%" y="-200%" width="400%" height="400%" filterUnits="objectBoundingBox" color-interpolation-filters="sRGB"><feGaussianBlur xmlns="http://www.w3.org/2000/svg" in="SourceGraphic" stdDeviation="0.8587218125678057"/><feOffset xmlns="http://www.w3.org/2000/svg" dx="0" dy="0" result="pf_100_offsetBlur"/><feFlood xmlns="http://www.w3.org/2000/svg" flood-color="#000000" flood-opacity="0.65"/><feComposite xmlns="http://www.w3.org/2000/svg" in2="pf_100_offsetBlur" operator="in" result="pf_100_dropShadow"/><feBlend xmlns="http://www.w3.org/2000/svg" in="SourceGraphic" in2="pf_100_dropShadow" mode="normal"/></filter></defs><g filter="url(#gWVCTW2zNc6XnXWJXnsAwdwKJM1yD9Ri)"><path d=" M 78.885 42.741 L 173.426 51.849 C 179.423 52.427 185.908 57.513 187.899 63.199 L 301.527 387.849 C 302.522 390.693 300.884 393 297.871 393 L 205.268 393 C 199.244 393 192.696 388.397 190.658 382.727 L 71.713 51.967 C 69.674 46.297 72.888 42.163 78.885 42.741 Z " fill="rgb(93,135,191)"/></g></g></g></svg>