<?xml version="1.0" encoding="UTF-8" standalone="no"?><!-- Generator: Gravit.io --><svg xmlns="http://www.w3.org/2000/svg" xmlns:xlink="http://www.w3.org/1999/xlink" style="isolation:isolate" viewBox="0 0 500 500" width="500pt" height="500pt"><defs><clipPath id="_clipPath_nKq3XcDekU5b11h1uZg6Qp7z6GUYT1e6"><rect width="500" height="500"/></clipPath></defs><g clip-path="url(#_clipPath_nKq3XcDekU5b11h1uZg6Qp7z6GUYT1e6)"><defs><filter id="Yt8esRuwCXhzaMyV43VcwYPuBZBYdn7K" x="-200%" y="-200%" width="400%" height="400%" filterUnits="objectBoundingBox" color-interpolation-filters="sRGB"><feGaussianBlur xmlns="http://www.w3.org/2000/svg" in="SourceGraphic" stdDeviation="1.2880827188517086"/><feOffset xmlns="http://www.w3.org/2000/svg" dx="0" dy="0" result="pf_100_offsetBlur"/><feFlood xmlns="http://www.w3.org/2000/svg" flood-color="#536B8A" flood-opacity="1"/><feComposite xmlns="http://www.w3.org/2000/svg" in2="pf_100_offsetBlur" operator="in" result="pf_100_dropShadow"/><feBlend xmlns="http://www.w3.org/2000/svg" in="SourceGraphic" in2="pf_100_dropShadow" mode="normal"/></filter></defs><g filter="url(#Yt8esRuwCXhzaMyV43VcwYPuBZBYdn7K)"><path d=" M 121.86 464.866 L 121.86 471.886 L 121.86 471.886 Q 110.264 472.926 102.62 472.926 L 102.62 472.926 L 102.62 472.926 Q 97.524 472.926 95.132 470.534 L 95.132 470.534 L 95.132 470.534 Q 92.74 468.142 92.74 463.046 L 92.74 463.046 L 92.74 446.406 L 92.74 446.406 Q 92.74 440.946 95.21 438.476 L 95.21 438.476 L 95.21 438.476 Q 97.68 436.006 103.14 436.006 L 103.14 436.006 L 121.86 436.006 L 121.86 443.286 L 105.22 443.286 L 105.22 443.286 Q 102.1 443.286 102.1 446.406 L 102.1 446.406 L 102.1 463.046 L 102.1 463.046 Q 102.1 464.242 102.802 464.944 L 102.802 464.944 L 102.802 464.944 Q 103.504 465.646 104.596 465.646 L 104.596 465.646 L 104.596 465.646 Q 105.688 465.646 106.988 465.62 L 106.988 465.62 L 106.988 465.62 Q 108.288 465.594 109.692 465.542 L 109.692 465.542 L 109.692 465.542 Q 111.096 465.49 112.526 465.438 L 112.526 465.438 L 112.526 465.438 Q 113.956 465.386 116.218 465.23 L 116.218 465.23 L 116.218 465.23 Q 118.48 465.074 121.86 464.866 L 121.86 464.866 Z  M 149.42 462.526 L 149.42 445.886 L 149.42 445.886 Q 149.42 442.766 146.3 442.766 L 146.3 442.766 L 137.46 442.766 L 137.46 442.766 Q 134.34 442.766 134.34 445.886 L 134.34 445.886 L 134.34 462.526 L 134.34 462.526 Q 134.34 465.646 137.46 465.646 L 137.46 465.646 L 146.3 465.646 L 146.3 465.646 Q 149.42 465.646 149.42 462.526 L 149.42 462.526 Z  M 158.78 445.886 L 158.78 462.526 L 158.78 462.526 Q 158.78 467.986 156.31 470.456 L 156.31 470.456 L 156.31 470.456 Q 153.84 472.926 148.38 472.926 L 148.38 472.926 L 135.38 472.926 L 135.38 472.926 Q 129.92 472.926 127.45 470.456 L 127.45 470.456 L 127.45 470.456 Q 124.98 467.986 124.98 462.526 L 124.98 462.526 L 124.98 445.886 L 124.98 445.886 Q 124.98 440.426 127.45 437.956 L 127.45 437.956 L 127.45 437.956 Q 129.92 435.486 135.38 435.486 L 135.38 435.486 L 148.38 435.486 L 148.38 435.486 Q 153.84 435.486 156.31 437.956 L 156.31 437.956 L 156.31 437.956 Q 158.78 440.426 158.78 445.886 L 158.78 445.886 Z  M 195.18 472.406 L 195.18 452.126 L 187.9 465.126 L 180.62 465.126 L 173.34 452.126 L 173.34 472.406 L 163.98 472.406 L 163.98 436.006 L 173.86 436.006 L 184.26 455.246 L 194.66 436.006 L 204.54 436.006 L 204.54 472.406 L 195.18 472.406 Z  M 241.98 472.406 L 241.98 452.126 L 234.7 465.126 L 227.42 465.126 L 220.14 452.126 L 220.14 472.406 L 210.78 472.406 L 210.78 436.006 L 220.66 436.006 L 231.06 455.246 L 241.46 436.006 L 251.34 436.006 L 251.34 472.406 L 241.98 472.406 Z  M 280.98 462.526 L 280.98 436.006 L 290.34 436.006 L 290.34 462.526 L 290.34 462.526 Q 290.34 467.986 287.87 470.456 L 287.87 470.456 L 287.87 470.456 Q 285.4 472.926 279.94 472.926 L 279.94 472.926 L 267.98 472.926 L 267.98 472.926 Q 262.52 472.926 260.05 470.456 L 260.05 470.456 L 260.05 470.456 Q 257.58 467.986 257.58 462.526 L 257.58 462.526 L 257.58 436.006 L 266.94 436.006 L 266.94 462.526 L 266.94 462.526 Q 266.94 465.646 270.06 465.646 L 270.06 465.646 L 277.86 465.646 L 277.86 465.646 Q 280.98 465.646 280.98 462.526 L 280.98 462.526 Z  M 328.3 436.006 L 328.3 472.406 L 318.42 472.406 L 305.94 450.566 L 305.94 472.406 L 296.58 472.406 L 296.58 436.006 L 306.46 436.006 L 318.94 457.846 L 318.94 436.006 L 328.3 436.006 Z  M 351.7 465.126 L 351.7 472.406 L 332.98 472.406 L 332.98 465.126 L 337.66 465.126 L 337.66 443.286 L 332.98 443.286 L 332.98 436.006 L 351.7 436.006 L 351.7 443.286 L 347.02 443.286 L 347.02 465.126 L 351.7 465.126 Z  M 374.06 443.286 L 374.06 472.406 L 364.7 472.406 L 364.7 443.286 L 353.78 443.286 L 353.78 436.006 L 384.98 436.006 L 384.98 443.286 L 374.06 443.286 Z  M 398.24 462.786 L 384.46 436.006 L 394.34 436.006 L 402.92 453.686 L 411.5 436.006 L 421.38 436.006 L 407.6 462.786 L 407.6 472.406 L 398.24 472.406 L 398.24 462.786 Z " fill="rgb(93,135,191)"/></g><g><path d=" M 306.618 400.808 L 426.837 66.502 C 428.876 60.833 425.662 56.698 419.665 57.277 L 325.124 66.384 C 319.127 66.962 312.649 72.051 310.668 77.74 L 199.393 397.227 C 197.411 402.916 200.694 407.535 206.718 407.535 L 298.74 407.535 C 301.752 407.535 305.025 405.234 306.045 402.399 L 306.618 400.808 Z " fill="rgb(83,107,138)"/><defs><filter id="D0v34K2CzvAYhXvnZ97DvWLdEBQqOMqX" x="-200%" y="-200%" width="400%" height="400%" filterUnits="objectBoundingBox" color-interpolation-filters="sRGB"><feGaussianBlur xmlns="http://www.w3.org/2000/svg" in="SourceGraphic" stdDeviation="6.440413594258542"/><feOffset xmlns="http://www.w3.org/2000/svg" dx="0" dy="0" result="pf_100_offsetBlur"/><feFlood xmlns="http://www.w3.org/2000/svg" flood-color="#000000" flood-opacity="0.65"/><feComposite xmlns="http://www.w3.org/2000/svg" in2="pf_100_offsetBlur" operator="in" result="pf_100_dropShadow"/><feBlend xmlns="http://www.w3.org/2000/svg" in="SourceGraphic" in2="pf_100_dropShadow" mode="normal"/></filter></defs><g filter="url(#D0v34K2CzvAYhXvnZ97DvWLdEBQqOMqX)"><path d=" M 292.904 402.399 L 242.849 257.804 L 250 253.334 L 300.948 400.808 L 292.904 402.399 Z " fill="rgb(235,235,235)"/></g><path d=" M 80.335 57.277 L 174.876 66.384 C 180.873 66.962 187.358 72.048 189.349 77.734 L 302.977 402.384 C 303.972 405.228 302.334 407.535 299.321 407.535 L 206.718 407.535 C 200.694 407.535 194.146 402.932 192.108 397.263 L 73.163 66.502 C 71.124 60.833 74.338 56.698 80.335 57.277 Z " fill="rgb(93,135,191)"/></g><g filter="url(#jW699LzpztKm4ngv5A3Aw0XanbxYkpaW)"><path d=" M 277.543 77.074 L 275.543 77.074 C 273.888 77.074 272.157 75.787 271.681 74.201 L 268.043 62.074 L 264.405 74.201 C 263.93 75.787 262.199 77.074 260.543 77.074 L 258.543 77.074 L 254.543 77.074 L 254.543 77.074 C 252.888 77.074 251.217 75.77 250.816 74.164 L 242.271 39.985 C 241.869 38.378 240.199 37.074 238.543 37.074 L 234.543 37.074 L 241.543 27.074 L 248.543 27.074 C 250.199 27.074 251.807 28.392 252.132 30.016 L 258.21 60.407 L 262.429 49.86 C 263.044 48.322 264.888 47.074 266.543 47.074 L 266.543 47.074 L 269.543 47.074 C 271.199 47.074 273.043 48.322 273.657 49.86 L 277.877 60.407 L 283.955 30.016 C 284.28 28.392 285.888 27.074 287.543 27.074 L 291.543 27.074 C 293.199 27.074 294.543 28.418 294.543 30.074 L 294.543 34.074 C 294.543 35.73 294.217 38.378 293.816 39.985 L 285.271 74.164 C 284.869 75.77 283.199 77.074 281.543 77.074 L 277.543 77.074 L 277.543 77.074 Z " fill-rule="evenodd" fill="rgb(109,147,197)"/><path d=" M 219.543 37.074 L 219.543 75.074 C 219.543 76.178 220.439 77.074 221.543 77.074 L 226.543 77.074 C 228.199 77.074 229.543 75.73 229.543 74.074 L 229.543 37.074 L 238.543 37.074 L 245.543 27.074 L 211.543 27.074 C 209.888 27.074 208.044 28.322 207.429 29.86 L 205.657 34.289 C 205.043 35.826 205.888 37.074 207.543 37.074 L 219.543 37.074 Z " fill-rule="evenodd" fill="rgb(84,122,172)"/></g><defs><filter id="jW699LzpztKm4ngv5A3Aw0XanbxYkpaW" x="-200%" y="-200%" width="400%" height="400%" filterUnits="objectBoundingBox" color-interpolation-filters="sRGB"><feGaussianBlur xmlns="http://www.w3.org/2000/svg" in="SourceGraphic" stdDeviation="1.2880827188517086"/><feOffset xmlns="http://www.w3.org/2000/svg" dx="0" dy="0" result="pf_100_offsetBlur"/><feFlood xmlns="http://www.w3.org/2000/svg" flood-color="#536B8A" flood-opacity="1"/><feComposite xmlns="http://www.w3.org/2000/svg" in2="pf_100_offsetBlur" operator="in" result="pf_100_dropShadow"/><feBlend xmlns="http://www.w3.org/2000/svg" in="SourceGraphic" in2="pf_100_dropShadow" mode="normal"/></filter></defs></g></svg>