<?xml version="1.0" encoding="UTF-8" standalone="no"?><!-- Generator: Gravit.io --><svg xmlns="http://www.w3.org/2000/svg" xmlns:xlink="http://www.w3.org/1999/xlink" style="isolation:isolate" viewBox="0 0 500 500" width="500pt" height="500pt"><defs><clipPath id="_clipPath_RFPHz8sVMm0EQyDJFoCtiaqVcrLmtUSR"><rect width="500" height="500"/></clipPath></defs><g clip-path="url(#_clipPath_RFPHz8sVMm0EQyDJFoCtiaqVcrLmtUSR)"><g><defs><filter id="n30nmnDowBEhWhikzIVH2H5saWHjyM8S" x="-200%" y="-200%" width="400%" height="400%" filterUnits="objectBoundingBox" color-interpolation-filters="sRGB"><feGaussianBlur xmlns="http://www.w3.org/2000/svg" in="SourceGraphic" stdDeviation="1.2880827188517086"/><feOffset xmlns="http://www.w3.org/2000/svg" dx="0" dy="0" result="pf_100_offsetBlur"/><feFlood xmlns="http://www.w3.org/2000/svg" flood-color="#303235" flood-opacity="0.7"/><feComposite xmlns="http://www.w3.org/2000/svg" in2="pf_100_offsetBlur" operator="in" result="pf_100_dropShadow"/><feBlend xmlns="http://www.w3.org/2000/svg" in="SourceGraphic" in2="pf_100_dropShadow" mode="normal"/></filter></defs><g filter="url(#n30nmnDowBEhWhikzIVH2H5saWHjyM8S)"><path d=" M 306.538 438.181 L 426.588 104.269 C 428.624 98.606 425.415 94.476 419.426 95.054 L 325.018 104.15 C 319.029 104.728 312.561 109.811 310.582 115.493 L 199.465 434.604 C 197.485 440.286 200.763 444.9 206.779 444.9 L 298.671 444.9 C 301.679 444.9 304.948 442.602 305.966 439.77 L 306.538 438.181 Z " fill="rgb(83,107,138)"/></g><defs><filter id="19axRZVXSdgLp4qpBUfipwJJULhCwE8m" x="-200%" y="-200%" width="400%" height="400%" filterUnits="objectBoundingBox" color-interpolation-filters="sRGB"><feGaussianBlur xmlns="http://www.w3.org/2000/svg" in="SourceGraphic" stdDeviation="6.440413594258542"/><feOffset xmlns="http://www.w3.org/2000/svg" dx="0" dy="0" result="pf_100_offsetBlur"/><feFlood xmlns="http://www.w3.org/2000/svg" flood-color="#000000" flood-opacity="0.65"/><feComposite xmlns="http://www.w3.org/2000/svg" in2="pf_100_offsetBlur" operator="in" result="pf_100_dropShadow"/><feBlend xmlns="http://www.w3.org/2000/svg" in="SourceGraphic" in2="pf_100_dropShadow" mode="normal"/></filter></defs><g filter="url(#19axRZVXSdgLp4qpBUfipwJJULhCwE8m)"><path d=" M 292.843 439.77 L 242.859 295.345 L 250 290.881 L 300.876 438.181 L 292.843 439.77 Z " fill="rgb(235,235,235)"/></g><defs><filter id="OStAkm9Q9gEIKp2KVicXfSABD9V7DrdI" x="-200%" y="-200%" width="400%" height="400%" filterUnits="objectBoundingBox" color-interpolation-filters="sRGB"><feGaussianBlur xmlns="http://www.w3.org/2000/svg" in="SourceGraphic" stdDeviation="1.2880827188517086"/><feOffset xmlns="http://www.w3.org/2000/svg" dx="0" dy="0" result="pf_100_offsetBlur"/><feFlood xmlns="http://www.w3.org/2000/svg" flood-color="#303235" flood-opacity="0.7"/><feComposite xmlns="http://www.w3.org/2000/svg" in2="pf_100_offsetBlur" operator="in" result="pf_100_dropShadow"/><feBlend xmlns="http://www.w3.org/2000/svg" in="SourceGraphic" in2="pf_100_dropShadow" mode="normal"/></filter></defs><g filter="url(#OStAkm9Q9gEIKp2KVicXfSABD9V7DrdI)"><path d=" M 80.574 95.054 L 174.982 104.15 C 180.971 104.728 187.446 109.808 189.434 115.488 L 302.902 439.755 C 303.896 442.595 302.261 444.9 299.252 444.9 L 206.779 444.9 C 200.763 444.9 194.225 440.303 192.189 434.64 L 73.412 104.269 C 71.376 98.606 74.585 94.476 80.574 95.054 Z " fill="rgb(93,135,191)"/></g></g></g></svg>