<?xml version="1.0" encoding="UTF-8" standalone="no"?><!-- Generator: Gravit.io --><svg xmlns="http://www.w3.org/2000/svg" xmlns:xlink="http://www.w3.org/1999/xlink" style="isolation:isolate" viewBox="0 0 500 500" width="500pt" height="500pt"><defs><clipPath id="_clipPath_iLf6CQPiCs9UYePDpIfrkKZLPibVkknI"><rect width="500" height="500"/></clipPath></defs><g clip-path="url(#_clipPath_iLf6CQPiCs9UYePDpIfrkKZLPibVkknI)"><defs><filter id="BLXwCGj3tA1wo2mMW3JuXUIr0rQitJCK" x="-200%" y="-200%" width="400%" height="400%" filterUnits="objectBoundingBox" color-interpolation-filters="sRGB"><feGaussianBlur xmlns="http://www.w3.org/2000/svg" in="SourceGraphic" stdDeviation="0.8587218125678057"/><feOffset xmlns="http://www.w3.org/2000/svg" dx="0" dy="0" result="pf_100_offsetBlur"/><feFlood xmlns="http://www.w3.org/2000/svg" flood-color="#000000" flood-opacity="0.65"/><feComposite xmlns="http://www.w3.org/2000/svg" in2="pf_100_offsetBlur" operator="in" result="pf_100_dropShadow"/><feBlend xmlns="http://www.w3.org/2000/svg" in="SourceGraphic" in2="pf_100_dropShadow" mode="normal"/></filter></defs><g filter="url(#BLXwCGj3tA1wo2mMW3JuXUIr0rQitJCK)"><path d=" M 306.545 438.145 L 426.611 104.268 C 428.647 98.605 425.437 94.476 419.447 95.054 L 325.028 104.149 C 319.038 104.727 312.569 109.809 310.59 115.491 L 199.458 434.569 C 197.478 440.251 200.757 444.864 206.774 444.864 L 298.678 444.864 C 301.685 444.864 304.955 442.566 305.973 439.734 L 306.545 438.145 Z " fill="rgb(83,107,138)"/></g><defs><filter id="N9PKEhDvwxw7WzdCnDfIEg5FGUjttxQY" x="-200%" y="-200%" width="400%" height="400%" filterUnits="objectBoundingBox" color-interpolation-filters="sRGB"><feGaussianBlur xmlns="http://www.w3.org/2000/svg" in="SourceGraphic" stdDeviation="6.440413594258542"/><feOffset xmlns="http://www.w3.org/2000/svg" dx="0" dy="0" result="pf_100_offsetBlur"/><feFlood xmlns="http://www.w3.org/2000/svg" flood-color="#000000" flood-opacity="0.65"/><feComposite xmlns="http://www.w3.org/2000/svg" in2="pf_100_offsetBlur" operator="in" result="pf_100_dropShadow"/><feBlend xmlns="http://www.w3.org/2000/svg" in="SourceGraphic" in2="pf_100_dropShadow" mode="normal"/></filter></defs><g filter="url(#N9PKEhDvwxw7WzdCnDfIEg5FGUjttxQY)"><path d=" M 292.849 439.734 L 242.859 295.324 L 250 290.861 L 300.883 438.145 L 292.849 439.734 Z " fill="rgb(235,235,235)"/></g><defs><filter id="sivelHXrHkkZAtg8lt33gvgnVP4EJNLS" x="-200%" y="-200%" width="400%" height="400%" filterUnits="objectBoundingBox" color-interpolation-filters="sRGB"><feGaussianBlur xmlns="http://www.w3.org/2000/svg" in="SourceGraphic" stdDeviation="0.8587218125678057"/><feOffset xmlns="http://www.w3.org/2000/svg" dx="0" dy="0" result="pf_100_offsetBlur"/><feFlood xmlns="http://www.w3.org/2000/svg" flood-color="#000000" flood-opacity="0.65"/><feComposite xmlns="http://www.w3.org/2000/svg" in2="pf_100_offsetBlur" operator="in" result="pf_100_dropShadow"/><feBlend xmlns="http://www.w3.org/2000/svg" in="SourceGraphic" in2="pf_100_dropShadow" mode="normal"/></filter></defs><g filter="url(#sivelHXrHkkZAtg8lt33gvgnVP4EJNLS)"><path d=" M 80.553 95.054 L 174.972 104.149 C 180.962 104.727 187.438 109.807 189.426 115.486 L 302.909 439.719 C 303.903 442.559 302.267 444.864 299.258 444.864 L 206.774 444.864 C 200.757 444.864 194.218 440.267 192.182 434.604 L 73.39 104.268 C 71.353 98.605 74.563 94.476 80.553 95.054 Z " fill="rgb(93,135,191)"/></g></g></svg>