<?xml version="1.0" encoding="UTF-8" standalone="no"?><!-- Generator: Gravit.io --><svg xmlns="http://www.w3.org/2000/svg" xmlns:xlink="http://www.w3.org/1999/xlink" style="isolation:isolate" viewBox="0 0 300 300" width="300pt" height="300pt"><defs><clipPath id="_clipPath_Jn1x6GRe7XE13HwU8zhoLU5xgbfBY96P"><rect width="300" height="300"/></clipPath></defs><g clip-path="url(#_clipPath_Jn1x6GRe7XE13HwU8zhoLU5xgbfBY96P)"><defs><filter id="VODaSH7sqKNT8pkhao3gFQU3OvjyQoD7" x="-200%" y="-200%" width="400%" height="400%" filterUnits="objectBoundingBox" color-interpolation-filters="sRGB"><feGaussianBlur xmlns="http://www.w3.org/2000/svg" in="SourceGraphic" stdDeviation="0.8587218125678057"/><feOffset xmlns="http://www.w3.org/2000/svg" dx="0" dy="0" result="pf_100_offsetBlur"/><feFlood xmlns="http://www.w3.org/2000/svg" flood-color="#000000" flood-opacity="0.65"/><feComposite xmlns="http://www.w3.org/2000/svg" in2="pf_100_offsetBlur" operator="in" result="pf_100_dropShadow"/><feBlend xmlns="http://www.w3.org/2000/svg" in="SourceGraphic" in2="pf_100_dropShadow" mode="normal"/></filter></defs><g filter="url(#VODaSH7sqKNT8pkhao3gFQU3OvjyQoD7)"><path d=" M 191.491 273.793 L 279.591 28.805 C 281.085 24.65 278.73 21.62 274.335 22.044 L 205.053 28.718 C 200.658 29.142 195.911 32.871 194.459 37.04 L 112.914 271.169 C 111.461 275.338 113.867 278.723 118.282 278.723 L 185.718 278.723 C 187.925 278.723 190.324 277.037 191.071 274.959 L 191.491 273.793 Z " fill="rgb(83,107,138)"/></g><defs><filter id="i6a1AlLCXEIWSYUlPy3Phw9D7Ai5WkSS" x="-200%" y="-200%" width="400%" height="400%" filterUnits="objectBoundingBox" color-interpolation-filters="sRGB"><feGaussianBlur xmlns="http://www.w3.org/2000/svg" in="SourceGraphic" stdDeviation="5.152330875406834"/><feOffset xmlns="http://www.w3.org/2000/svg" dx="1" dy="0" result="pf_100_offsetBlur"/><feFlood xmlns="http://www.w3.org/2000/svg" flood-color="#000000" flood-opacity="0.65"/><feComposite xmlns="http://www.w3.org/2000/svg" in2="pf_100_offsetBlur" operator="in" result="pf_100_dropShadow"/><feBlend xmlns="http://www.w3.org/2000/svg" in="SourceGraphic" in2="pf_100_dropShadow" mode="normal"/></filter></defs><g filter="url(#i6a1AlLCXEIWSYUlPy3Phw9D7Ai5WkSS)"><path d=" M 144.382 167.472 L 148.933 163.647 L 186.068 269.451 C 187.531 273.618 186.44 277.324 183.634 277.723 L 183.634 277.723 L 144.382 167.472 Z " fill="rgb(235,235,235)"/></g><defs><filter id="QZZuoQ0SfeXed5TMn115yVxoHJf7cYwW" x="-200%" y="-200%" width="400%" height="400%" filterUnits="objectBoundingBox" color-interpolation-filters="sRGB"><feGaussianBlur xmlns="http://www.w3.org/2000/svg" in="SourceGraphic" stdDeviation="0.8587218125678057"/><feOffset xmlns="http://www.w3.org/2000/svg" dx="0" dy="0" result="pf_100_offsetBlur"/><feFlood xmlns="http://www.w3.org/2000/svg" flood-color="#000000" flood-opacity="0.65"/><feComposite xmlns="http://www.w3.org/2000/svg" in2="pf_100_offsetBlur" operator="in" result="pf_100_dropShadow"/><feBlend xmlns="http://www.w3.org/2000/svg" in="SourceGraphic" in2="pf_100_dropShadow" mode="normal"/></filter></defs><g filter="url(#QZZuoQ0SfeXed5TMn115yVxoHJf7cYwW)"><path d=" M 25.665 22.044 L 94.947 28.718 C 99.342 29.142 104.094 32.869 105.553 37.036 L 188.823 274.948 C 189.552 277.032 188.352 278.723 186.144 278.723 L 118.282 278.723 C 113.867 278.723 109.069 275.35 107.575 271.195 L 20.409 28.805 C 18.915 24.65 21.27 21.62 25.665 22.044 Z " fill="rgb(93,135,191)"/></g></g></svg>