<?xml version="1.0" encoding="UTF-8" standalone="no"?><!-- Generator: Gravit.io --><svg xmlns="http://www.w3.org/2000/svg" xmlns:xlink="http://www.w3.org/1999/xlink" style="isolation:isolate" viewBox="0 0 32 32" width="32pt" height="32pt"><defs><clipPath id="_clipPath_DoMIRzPbygJMsCeDBAhqNSPnU96TJuiY"><rect width="32" height="32"/></clipPath></defs><g clip-path="url(#_clipPath_DoMIRzPbygJMsCeDBAhqNSPnU96TJuiY)"><g><defs><filter id="oYk0nLmnxFINaIu81wM3H8IcopGu2MVv" x="-200%" y="-200%" width="400%" height="400%" filterUnits="objectBoundingBox" color-interpolation-filters="sRGB"><feGaussianBlur xmlns="http://www.w3.org/2000/svg" in="SourceGraphic" stdDeviation="1.2880827188517086"/><feOffset xmlns="http://www.w3.org/2000/svg" dx="0" dy="0" result="pf_100_offsetBlur"/><feFlood xmlns="http://www.w3.org/2000/svg" flood-color="#303235" flood-opacity="0.7"/><feComposite xmlns="http://www.w3.org/2000/svg" in2="pf_100_offsetBlur" operator="in" result="pf_100_dropShadow"/><feBlend xmlns="http://www.w3.org/2000/svg" in="SourceGraphic" in2="pf_100_dropShadow" mode="normal"/></filter></defs><g filter="url(#oYk0nLmnxFINaIu81wM3H8IcopGu2MVv)"><path d=" M 20.786 30.424 L 30.948 1.795 C 31.121 1.309 30.849 0.955 30.342 1.005 L 22.35 1.785 C 21.843 1.834 21.296 2.27 21.128 2.757 L 11.722 30.117 C 11.555 30.604 11.832 31 12.341 31 L 20.12 31 C 20.375 31 20.651 30.803 20.737 30.56 L 20.786 30.424 Z " fill="rgb(83,107,138)"/></g><defs><filter id="7318BRLkLmkeOP7nuYLfwMUbo33G6Ker" x="-200%" y="-200%" width="400%" height="400%" filterUnits="objectBoundingBox" color-interpolation-filters="sRGB"><feGaussianBlur xmlns="http://www.w3.org/2000/svg" in="SourceGraphic" stdDeviation="6.440413594258542"/><feOffset xmlns="http://www.w3.org/2000/svg" dx="0" dy="0" result="pf_100_offsetBlur"/><feFlood xmlns="http://www.w3.org/2000/svg" flood-color="#000000" flood-opacity="0.65"/><feComposite xmlns="http://www.w3.org/2000/svg" in2="pf_100_offsetBlur" operator="in" result="pf_100_dropShadow"/><feBlend xmlns="http://www.w3.org/2000/svg" in="SourceGraphic" in2="pf_100_dropShadow" mode="normal"/></filter></defs><g filter="url(#7318BRLkLmkeOP7nuYLfwMUbo33G6Ker)"><path d=" M 19.627 30.56 L 15.396 18.177 L 16 17.795 L 20.307 30.424 L 19.627 30.56 Z " fill="rgb(235,235,235)"/></g><defs><filter id="QYjVVIq3Lu7TR7JM0dUQuI5gG8mVPXnY" x="-200%" y="-200%" width="400%" height="400%" filterUnits="objectBoundingBox" color-interpolation-filters="sRGB"><feGaussianBlur xmlns="http://www.w3.org/2000/svg" in="SourceGraphic" stdDeviation="1.2880827188517086"/><feOffset xmlns="http://www.w3.org/2000/svg" dx="0" dy="0" result="pf_100_offsetBlur"/><feFlood xmlns="http://www.w3.org/2000/svg" flood-color="#303235" flood-opacity="0.7"/><feComposite xmlns="http://www.w3.org/2000/svg" in2="pf_100_offsetBlur" operator="in" result="pf_100_dropShadow"/><feBlend xmlns="http://www.w3.org/2000/svg" in="SourceGraphic" in2="pf_100_dropShadow" mode="normal"/></filter></defs><g filter="url(#QYjVVIq3Lu7TR7JM0dUQuI5gG8mVPXnY)"><path d=" M 1.658 1.005 L 9.65 1.785 C 10.157 1.834 10.705 2.27 10.873 2.757 L 20.478 30.559 C 20.562 30.802 20.424 31 20.169 31 L 12.341 31 C 11.832 31 11.279 30.606 11.106 30.12 L 1.052 1.795 C 0.879 1.309 1.151 0.955 1.658 1.005 Z " fill="rgb(93,135,191)"/></g></g></g></svg>