<?xml version="1.0" encoding="UTF-8" standalone="no"?><!-- Generator: Gravit.io --><svg xmlns="http://www.w3.org/2000/svg" xmlns:xlink="http://www.w3.org/1999/xlink" style="isolation:isolate" viewBox="0 0 32 32" width="32pt" height="32pt"><defs><clipPath id="_clipPath_B3eydrhhyKFNjBKXGOPB8OrYgku82sLg"><rect width="32" height="32"/></clipPath></defs><g clip-path="url(#_clipPath_B3eydrhhyKFNjBKXGOPB8OrYgku82sLg)"><g><defs><filter id="Jm4BDE1qwteMl8azr4DGs4nRCfLexl9C" x="-200%" y="-200%" width="400%" height="400%" filterUnits="objectBoundingBox" color-interpolation-filters="sRGB"><feGaussianBlur xmlns="http://www.w3.org/2000/svg" in="SourceGraphic" stdDeviation="1.2880827188517086"/><feOffset xmlns="http://www.w3.org/2000/svg" dx="0" dy="0" result="pf_100_offsetBlur"/><feFlood xmlns="http://www.w3.org/2000/svg" flood-color="#303235" flood-opacity="0.7"/><feComposite xmlns="http://www.w3.org/2000/svg" in2="pf_100_offsetBlur" operator="in" result="pf_100_dropShadow"/><feBlend xmlns="http://www.w3.org/2000/svg" in="SourceGraphic" in2="pf_100_dropShadow" mode="normal"/></filter></defs><g filter="url(#Jm4BDE1qwteMl8azr4DGs4nRCfLexl9C)"><path d=" M 20.435 29.366 L 29.852 2.836 C 30.012 2.386 29.76 2.058 29.29 2.104 L 21.885 2.827 C 21.415 2.873 20.907 3.277 20.752 3.728 L 12.036 29.082 C 11.881 29.533 12.138 29.9 12.61 29.9 L 19.818 29.9 C 20.054 29.9 20.31 29.717 20.39 29.492 L 20.435 29.366 Z " fill="rgb(83,107,138)"/></g><defs><filter id="qDvAIbIU06FpfLbCdKuRrnGFBmak0pMH" x="-200%" y="-200%" width="400%" height="400%" filterUnits="objectBoundingBox" color-interpolation-filters="sRGB"><feGaussianBlur xmlns="http://www.w3.org/2000/svg" in="SourceGraphic" stdDeviation="6.440413594258542"/><feOffset xmlns="http://www.w3.org/2000/svg" dx="0" dy="0" result="pf_100_offsetBlur"/><feFlood xmlns="http://www.w3.org/2000/svg" flood-color="#000000" flood-opacity="0.65"/><feComposite xmlns="http://www.w3.org/2000/svg" in2="pf_100_offsetBlur" operator="in" result="pf_100_dropShadow"/><feBlend xmlns="http://www.w3.org/2000/svg" in="SourceGraphic" in2="pf_100_dropShadow" mode="normal"/></filter></defs><g filter="url(#qDvAIbIU06FpfLbCdKuRrnGFBmak0pMH)"><path d=" M 19.361 29.492 L 15.44 18.018 L 16 17.663 L 19.991 29.366 L 19.361 29.492 Z " fill="rgb(235,235,235)"/></g><defs><filter id="48xuv3E1qftFp8e5tA0HxY4Bk0q0dTji" x="-200%" y="-200%" width="400%" height="400%" filterUnits="objectBoundingBox" color-interpolation-filters="sRGB"><feGaussianBlur xmlns="http://www.w3.org/2000/svg" in="SourceGraphic" stdDeviation="1.2880827188517086"/><feOffset xmlns="http://www.w3.org/2000/svg" dx="0" dy="0" result="pf_100_offsetBlur"/><feFlood xmlns="http://www.w3.org/2000/svg" flood-color="#303235" flood-opacity="0.7"/><feComposite xmlns="http://www.w3.org/2000/svg" in2="pf_100_offsetBlur" operator="in" result="pf_100_dropShadow"/><feBlend xmlns="http://www.w3.org/2000/svg" in="SourceGraphic" in2="pf_100_dropShadow" mode="normal"/></filter></defs><g filter="url(#48xuv3E1qftFp8e5tA0HxY4Bk0q0dTji)"><path d=" M 2.71 2.104 L 10.115 2.827 C 10.585 2.873 11.093 3.277 11.249 3.728 L 20.15 29.491 C 20.228 29.717 20.099 29.9 19.863 29.9 L 12.61 29.9 C 12.138 29.9 11.625 29.535 11.465 29.085 L 2.148 2.836 C 1.988 2.386 2.24 2.058 2.71 2.104 Z " fill="rgb(93,135,191)"/></g></g></g></svg>